<svg xmlns:dc="http://purl.org/dc/elements/1.1/"
     xmlns:cc="http://creativecommons.org/ns#"
     xmlns:rdf="http://www.w3.org/1999/02/22-rdf-syntax-ns#"
     xmlns:svg="http://www.w3.org/2000/svg"
     xmlns="http://www.w3.org/2000/svg"
     version="1.1"
     viewBox="0 0 526.55 88.23"
     id="studyfinder-logo"
     role="img"
     class="logo float-right d-none d-md-block">
  <title>StudyFinder logo</title>
  <g id="studyfinder-logo-study">
    <path d="m 1.41,68.08 1.42,-2.87 2,2.18 q 3.32,3.21 9,3.14 A 12.5,12.5 0 0 0 20.44,68.89 5.43,5.43 0 0 0 23.23,64 c 0,-2.41 -1.28,-4.14 -3.92,-5.21 a 45.08,45.08 0 0 0 -6.85,-1.9 28.57,28.57 0 0 1 -6.51,-2 A 8.18,8.18 0 0 1 1.84,51.25 7.84,7.84 0 0 1 0.71,47 9.26,9.26 0 0 1 5.29,38.9 q 4.2,-2.8 11,-2.85 a 26,26 0 0 1 8,1.17 26.76,26.76 0 0 1 2.79,1.24 l -1.32,2.3 -1.45,2.84 -1.65,-1.86 a 10.46,10.46 0 0 0 -7.7,-3 9.6,9.6 0 0 0 -5.68,1.66 4.68,4.68 0 0 0 -2.15,4.17 5,5 0 0 0 1.08,3.33 8,8 0 0 0 3.69,2.33 33.32,33.32 0 0 0 5.24,1.46 52,52 0 0 1 7.31,2.07 7.76,7.76 0 0 1 5.2,7.55 q 0,5.13 -5.57,8.74 a 21.63,21.63 0 0 1 -12,3.21 A 23.56,23.56 0 0 1 0,70.34 Z"
          id="path849" />
    <path d="m 36.35,36.71 a 20.29,20.29 0 0 0 2.36,0.22 L 41.16,37 v -2.4 l -0.09,-1.68 -0.33,-2.15 -0.33,-1.24 4.59,-1.35 4.34,-1.71 -0.33,1.82 -0.28,3.43 -0.15,2.88 V 37 l 6.94,-0.07 a 8.69,8.69 0 0 0 2.18,-0.15 l 1.3,-0.36 -0.24,2 0.24,2.34 -1.94,-0.37 h -2.17 c -1.82,0 -3.92,0 -6.28,-0.18 v 22.63 q 0,3.85 1,5.28 1.65,2.41 5.85,2.41 a 6.73,6.73 0 0 0 2.64,-0.41 l 1,-0.47 v 2.19 l -1.36,0.58 a 15.46,15.46 0 0 1 -5.58,0.84 17.05,17.05 0 0 1 -5.85,-0.91 c -2.24,-0.73 -3.68,-1.89 -4.34,-3.46 a 13.1,13.1 0 0 1 -0.81,-5 V 40.17 l -2.64,0.18 h -1.93 l -1.47,0.37 0.24,-2.37 -0.24,-2 z"
          id="path851" />
    <path d="m 75.86,38.46 -0.14,2.44 -0.23,7.62 v 8.67 2.48 a 12.54,12.54 0 0 0 0.75,4.15 6.82,6.82 0 0 0 4,4.05 15.26,15.26 0 0 0 6.47,1.34 q 10.66,0 11.57,-9.72 l 0.09,-2.37 0.14,-8.6 -0.09,-7.84 -0.14,-2.19 -0.52,-1.67 4.81,0.18 4.16,-0.18 -0.29,1.57 -0.19,2.11 -0.18,7.94 v 8.75 2.44 5.91 l 0.1,2.69 0.33,2.62 0.33,1.64 -4.16,-0.18 -4.2,0.18 0.28,-1.82 L 99,68.08 99.14,66 97.34,68.08 A 16,16 0 0 1 89,72.64 21.5,21.5 0 0 1 83.53,73.26 22.85,22.85 0 0 1 77.91,72.64 Q 72.1,71.37 69.6,67.83 c -1.23,-1.72 -1.86,-4.41 -1.89,-8 L 67.79,57 68,48.66 v -7.8 l -0.14,-2.37 -0.57,-1.67 4.3,0.18 4.67,-0.18 z"
          id="path853" />
    <path d="m 152.91,70.89 0.42,-3.94 0.1,-2.47 -1.28,1.82 q -5.28,7 -15.67,7 -9.67,0 -15,-5.83 a 18.4,18.4 0 0 1 -4.67,-12.79 16.84,16.84 0 0 1 5.29,-12.9 q 6.09,-5.72 15.67,-5.69 a 23.66,23.66 0 0 1 8.31,1.46 12.25,12.25 0 0 1 6.21,4.45 l 0.47,0.84 -0.09,-7.37 -0.14,-10.2 -0.14,-3.82 -0.15,-2.7 -0.24,-1.86 4.34,0.18 4.63,-0.18 -0.24,1.82 -0.28,2.88 -0.14,3.82 V 35.65 49.9 l -0.05,12.72 0.1,4.59 a 31.39,31.39 0 0 0 0.28,3.53 l 0.38,1.75 -4.2,-0.18 -4.11,0.18 z M 125.57,54.13 a 31,31 0 0 0 0.33,5.17 14.15,14.15 0 0 0 1.56,4.7 c 2,4 5.7,6.1 11,6.12 q 8.35,0.07 12,-6.56 a 20.36,20.36 0 0 0 1.94,-9.37 Q 152.3,47.43 149,43.37 a 12.12,12.12 0 0 0 -9.59,-4.12 q -13.73,0.12 -13.84,14.88 z"
          id="path855" />
    <path d="m 174.72,37 5.19,-0.18 0.38,1.86 L 181,41 c 0.51,1.31 1.12,2.71 1.85,4.19 l 3.91,7.47 5.1,9.29 1.7,2.85 1.7,-2.85 4.52,-8.95 3.78,-7.51 q 0.57,-1.24 1.79,-4.3 l 0.85,-2.51 0.43,-1.9 4.62,0.18 3.74,-0.18 -1.42,2.11 -1.94,2.7 -2.69,4.12 -4.39,7.54 -5.05,8.86 -6,10.6 -2.78,5.29 -2.93,6 -0.89,2.19 -0.43,1.6 -3.78,-0.18 -4.62,0.18 1.18,-1.49 1.75,-2.11 a 63.84,63.84 0 0 0 4.72,-6.49 l 3.45,-5.32 -1.89,-3.64 -3.64,-6.74 -5,-9.15 -4.2,-7.36 -2.44,-4.22 -1.7,-2.63 -1.3,-1.82 z"
          id="path857" />
    <path d="m 299.5,15.24 c -0.64,-0.55 -1,-0.81 -1.5,-1.17 l -1.36,-1 c -0.91,-0.63 -1.81,-1.22 -2.73,-1.8 Q 291.18,9.54 288.34,8.05 A 78,78 0 0 0 276.53,3 c -8.14,-2.68 -17.1,-3.89 -25.71,-2.27 a 40.17,40.17 0 0 0 -12.08,4.34 43.87,43.87 0 0 0 -9.85,7.49 67.86,67.86 0 0 0 -13.07,19.55 65.63,65.63 0 0 1 16.06,-15.93 34.36,34.36 0 0 1 19.83,-6.1 40.35,40.35 0 0 1 19.21,5.86 62.81,62.81 0 0 1 8.45,5.91 c 1.33,1.1 2.62,2.25 3.84,3.44 0.62,0.59 1.21,1.19 1.79,1.79 l 0.83,0.9 a 8.41,8.41 0 0 1 0.63,0.77 z"
          id="path859" />
  </g>
  <g id="studyfinder-logo-finder">
    <path d="m 279.22,49.78 c 0,2.4 -1.09,3.61 -3.26,3.61 h -41.72 v 17 q 0,3.11 -3.06,3.1 a 12.84,12.84 0 0 1 -3.77,-0.28 2.63,2.63 0 0 1 -1.88,-2.82 V 36.83 q 0,-5.73 7.38,-8.79 a 31.93,31.93 0 0 1 12.4,-2.36 h 6.51 c 2.07,0 3.1,1.34 3.1,4 q 0,3.1 -3.1,3.11 -17.58,0 -17.58,4.35 v 9.07 H 276 q 3.22,0 3.22,3.57 z"
          id="path837" />
    <path d="m 296.15,71 a 2.14,2.14 0 0 1 -2.4,2.44 c -0.7,0 -1.3,0 -1.79,0 -0.49,0 -0.89,-0.07 -1.18,-0.11 A 2.11,2.11 0 0 1 289.3,71 V 38.21 a 2,2 0 0 1 1.45,-2.21 8.24,8.24 0 0 1 1.08,-0.11 c 0.5,0 1.13,-0.05 1.92,-0.05 a 2.12,2.12 0 0 1 2.4,2.41 z"
          id="path839" />
    <path d="m 352.43,69.37 q 0,4.29 -3.76,4.29 a 6.53,6.53 0 0 1 -3.93,-1.82 l -32,-27.21 V 71 a 2.11,2.11 0 0 1 -1.48,2.29 c -0.29,0 -0.68,0.07 -1.17,0.11 -0.49,0.04 -1.09,0 -1.79,0 A 2.14,2.14 0 0 1 305.87,71 V 39.6 c 0,-2.72 1.18,-4.08 3.52,-4.08 a 7.2,7.2 0 0 1 4.58,2 l 31.61,26.89 v -26.2 a 2.08,2.08 0 0 1 1.48,-2.21 11.19,11.19 0 0 1 1.16,-0.11 c 0.5,0 1.09,-0.05 1.78,-0.05 a 2.13,2.13 0 0 1 2.43,2.41 z"
          id="path841" />
    <path d="m 408.9,63.25 q 0,5.31 -5.34,8.06 a 22.15,22.15 0 0 1 -10.1,2.1 h -29 A 2.14,2.14 0 0 1 362,71 V 38.21 a 2.13,2.13 0 0 1 2.41,-2.41 h 29.18 q 15.28,0 15.29,9.57 z m -6.8,0 V 45.4 q 0,-2.19 -3.33,-3.27 a 18.09,18.09 0 0 0 -5.34,-0.74 h -24.55 v 26.37 h 24.43 a 16.39,16.39 0 0 0 5.49,-0.83 c 2.2,-0.79 3.3,-2.02 3.3,-3.71 z"
          id="path843" />
    <path d="m 459.74,54.61 c 0,2 -0.85,3 -2.56,3 h -33 v 6.18 q 0,4 8.8,4 h 24.21 a 2.14,2.14 0 0 1 2.41,2.44 c 0,2.14 -0.8,3.21 -2.41,3.21 h -24.53 a 24.93,24.93 0 0 1 -9.85,-1.91 q -5.49,-2.5 -5.5,-7.48 V 45.37 a 7.45,7.45 0 0 1 1.83,-4.88 q 3.94,-4.68 14.11,-4.69 H 440 c 1.58,0 2.38,1.05 2.38,3.15 A 2.13,2.13 0 0 1 440,41.39 h -2 a 1.08,1.08 0 0 1 -0.37,0 h -1.32 -0.93 q -11.26,0 -11.27,4.07 V 52 h 33.1 c 1.69,0 2.53,0.84 2.53,2.61 z"
          id="path845" />
    <path d="m 514.2,49.85 q 0,5.1 -5.37,7.44 A 25.81,25.81 0 0 1 499,59 h -11.3 l 22.91,9.73 a 2.58,2.58 0 0 1 1.82,2.38 q 0,2.31 -4,2.31 A 10.48,10.48 0 0 1 505.9,73.18 L 474.58,59.83 V 71 a 2.14,2.14 0 0 1 -2.4,2.44 10.73,10.73 0 0 1 -3,-0.21 A 2.07,2.07 0 0 1 467.73,71 V 38.21 a 2.13,2.13 0 0 1 2.41,-2.41 h 27.6 a 28.59,28.59 0 0 1 10.57,1.67 q 5.9,2.37 5.89,7.84 z m -6.85,0.06 v -4.75 q 0,-3.77 -9.64,-3.77 h -23.13 v 12 H 499 q 8.35,0.04 8.35,-3.48 z"
          id="path847" />
    <path d="m 523.08,33 a 3.93,3.93 0 0 1 1.3,0.84 4.45,4.45 0 0 1 0.86,1.19 4,4 0 0 1 0.41,1.81 4.26,4.26 0 0 1 -0.54,2.07 4.06,4.06 0 0 1 -1.52,1.53 4.12,4.12 0 0 1 -4.08,0 4,4 0 0 1 -1.51,-1.55 4.28,4.28 0 0 1 -0.55,-2.07 3.91,3.91 0 0 1 0.36,-1.69 4.25,4.25 0 0 1 0.89,-1.28 3.89,3.89 0 0 1 1.16,-0.8 4.07,4.07 0 0 1 3.23,-0.07 z m 2.92,1.8 a 4.83,4.83 0 0 0 -0.94,-1.38 5.13,5.13 0 0 0 -1.52,-1.05 4.55,4.55 0 0 0 -2,-0.42 4.71,4.71 0 0 0 -2.12,0.49 5.05,5.05 0 0 0 -1.34,1 4.88,4.88 0 0 0 -1,1.5 4.79,4.79 0 0 0 -0.39,1.93 4.91,4.91 0 0 0 0.64,2.43 4.56,4.56 0 0 0 1.8,1.79 4.85,4.85 0 0 0 2.42,0.65 4.71,4.71 0 0 0 2.12,-0.49 4.92,4.92 0 0 0 1.4,-1 4.34,4.34 0 0 0 1,-1.54 5,5 0 0 0 0.35,-1.81 4.92,4.92 0 0 0 -0.42,-2.1 z m -4.59,2.71 a 1.48,1.48 0 0 1 0.7,0.13 0.7,0.7 0 0 1 0.34,0.34 1.92,1.92 0 0 1 0.14,0.7 3.25,3.25 0 0 0 0.09,0.81 h 1.14 a 3.3,3.3 0 0 1 -0.08,-0.71 4.34,4.34 0 0 0 -0.06,-0.69 1.34,1.34 0 0 0 -0.21,-0.53 1,1 0 0 0 -0.37,-0.34 1.91,1.91 0 0 0 -0.6,-0.2 2.2,2.2 0 0 0 0.6,-0.14 1.38,1.38 0 0 0 0.52,-0.47 1.34,1.34 0 0 0 0.2,-0.72 1.48,1.48 0 0 0 -0.19,-0.74 1.6,1.6 0 0 0 -0.47,-0.5 2.13,2.13 0 0 0 -0.75,-0.28 6,6 0 0 0 -1,-0.05 h -1.91 v 5.37 h 1.2 v -2 z M 522,35 a 0.81,0.81 0 0 1 0.43,0.28 0.75,0.75 0 0 1 0.15,0.47 0.8,0.8 0 0 1 -0.13,0.46 0.84,0.84 0 0 1 -0.41,0.32 1.47,1.47 0 0 1 -0.56,0.1 h -0.8 V 35 h 0.8 a 2.06,2.06 0 0 1 0.52,0 z"
          id="path861" />
  </g>
</svg>
