<svg id="Layer_1" xmlns="http://www.w3.org/2000/svg" xmlns:xlink="http://www.w3.org/1999/xlink" viewBox="0 0 240 72.9"><style>.st0{fill:#FDBD10;} .st1{fill:#0B0204;} .st2{fill:#FFFFFF;} .st3{clip-path:url(#SVGID_2_);fill:#0B0204;}</style><path class="st0" d="M72.6 7.9h17.2l12.9 40.9 13.5-40.9h15.5l-20.5 56.5H92.5zM166.2 25.7c-.7-5.7-4.7-7.8-9.1-7.8-9.4 0-12.3 8.7-12.3 19 0 3.4.1 17.7 12.2 17.7 8.3 0 9.1-6 9.4-8.2h16.2c-.1 17.7-18 19.2-25.4 19.2-5.5 0-15.1-.9-21.4-7.5-6.2-6.6-7.3-15.6-7.3-21.5 0-7.8 1.8-15.5 7.1-21.5 5.8-6.6 13.2-8.3 21.4-8.3 9.1 0 16.1 2.2 20.5 6.9 4.5 4.9 4.6 9.9 4.7 12.1h-16zM202.1 7.9v33.6c0 3.1.2 6.2 1.8 8.5 2.1 3.1 5.8 4.6 9.6 4.6 9.9 0 11.2-8.1 11.2-13.7v-33H240v32.7c0 6.3-.9 13.1-4.4 17.2-5.5 6.7-15.5 8.1-22.6 8.1-26.6 0-26.7-16.6-26.7-25.8l.1-32.2h15.7zM72.3 36.2c0 19.9-16.2 36-36.1 36-20 0-36.1-16.1-36.1-36S16.3.2 36.2.2c19.9 0 36.1 16.1 36.1 36"/><path class="st1" d="M36.1 61.8c-14.1 0-25.5-11.4-25.5-25.6 0-14.1 11.4-25.6 25.5-25.6S61.6 22 61.6 36.2c0 14.1-11.4 25.6-25.5 25.6m0-59.6c-18.7 0-33.9 15.2-33.9 34s15.2 34 33.9 34S70 55 70 36.2s-15.2-34-33.9-34"/><path class="st2" d="M18.4 61.6c-.2.1-.3.2-.3.3-.1.1-.1.2-.1.2 0 .1.2.3.3.4.1.1.1.2 0 .2-.1.1-.1 0-.2 0-.2-.1-.4-.3-.6-.4l-.6-.3c-.1 0-.1-.1-.1-.2.1-.1.2 0 .4-.1.2 0 .4-.2.7-.4l3.1-2c.3-.2.4-.2.5-.1.1.1.1.1.1.4l-.6 4.2c-.1.3.1.5.1.6.1.1.1.1.1.2-.1.1-.1.1-.2 0-.3-.2-.5-.4-.7-.5-.3-.2-.5-.3-.8-.4 0 0-.1-.1-.1-.2.1-.1.2-.1.3 0 .2.1.3 0 .4-.2.1-.1.1-.3.1-.4l.3-2.3v-.3s-.1 0-.2.1l-1.9 1.2zM17.6 57.4c.3-.3.1-.7 0-.8-.1-.1-.1-.1 0-.2s.2 0 .4.2c.2.1.3.4.5.5.2.2.5.3.7.5.1.1.2.1.1.2s-.2 0-.2 0c-.3-.1-.5.1-.6.2l-2 2.3c-.3.3-.2.6 0 .8.1.1.1.1 0 .2s-.2 0-.4-.2l-.6-.6c-.2-.2-.5-.3-.7-.5-.1-.1-.2-.1-.1-.2s.2 0 .3 0c.3.1.4-.1.6-.3l2-2.1zM14.2 56.8c.1-.1.2-.2-.1-.5-.4-.5-.8-.5-1.3 0-.4.3-.5.9-.1 1.3.2.3.4.2.5.1l1-.9zm-.2 1.5c-.3.3-.2.5-.1.8 0 .1.1.1 0 .2 0 0-.1.1-.2-.1-.1-.1-.2-.3-.5-.7-.2-.3-.6-.6-.8-.8-.6-.7-1.1-1.5-.3-2.2.3-.3.7-.3 1-.2.1.1.3.2.4.1.1-.1.6-1.5.6-2v-.2c0-.1-.1-.1-.2-.1-.1-.1 0-.1 0-.2.2-.2.8.4.9.5.1.1.2.4.1.7l-.6 1.6c-.1.2-.1.4 0 .6.1.1.2.1.2.1l.9-.8c.4-.4.4-.6.2-.9-.1-.1-.1-.1 0-.2s.1 0 .3.2c.2.2.3.4.5.6l.6.6c.1.1.1.1.1.2-.1.1-.2 0-.2 0-.2-.1-.5 0-.7.1L14 58.3zM11 50.4c-.4.2-.3.5-.2.8 0 .1 0 .1-.1.2-.1 0-.1 0-.3-.3-.1-.2-.2-.5-.4-.7-.1-.2-.3-.4-.5-.7-.1-.1-.1-.2 0-.2.1-.1.2 0 .2.1.2.2.5.1.7 0l.8-.5c.1-.1 1.1.7 1.6 1.5.7 1.2.5 2.5-.7 3.2-1.2.8-2.8.4-3.5-.7-.4-.7-.4-1.4-.5-1.5-.1-.1-.2 0-.3-.2v-.1l.8-.6c.1-.1.2-.2.3-.2.1-.1.2-.1.2 0s-.1.2-.1.3c-.6 1.1-.4 1.5-.1 2 .6 1 1.5.8 2.5.3.8-.5 1.8-1.4 1.2-2.4-.3-.5-.7-.7-1.2-.3H11zM10.1 46.9c.4-.2.4-.6.3-.7 0-.1 0-.2.1-.2s.2.1.3.3c.1.2.1.5.2.7.1.3.3.5.4.7.1.1.1.2 0 .3-.1 0-.2-.1-.2-.1-.2-.2-.4-.2-.6-.1L7.7 49c-.4.2-.4.4-.3.7 0 .1 0 .2-.1.2s-.2-.1-.3-.3c-.1-.2-.2-.5-.3-.8-.1-.3-.3-.5-.4-.7 0-.1-.1-.2 0-.2s.2.1.3.2c.2.2.4.1.6 0l2.9-1.2zM6.8 45c-.1.2-.2.3-.2.4h.2l2.4-.6c.3-.1.5-.3.6-.6 0-.2-.1-.4.1-.4.1 0 .2.1.2.2.1.2.1.5.1.7.1.2.2.4.2.7 0 .1 0 .1-.1.2-.1 0-.2 0-.2-.1-.3-.3-.5-.4-.9-.3l-2.5.6c-.3.1-.6.3-.6.5-.1.2 0 .3-.2.4-.1 0-.1 0-.1-.1-.1-.2-.1-.4-.1-.6 0-.2-.1-.4-.2-.6v-.3l2-3.2c.1-.1.1-.2.1-.3 0-.1-.1 0-.2 0l-1.5.4c-.4.1-.8.2-.8.7 0 .2 0 .4-.1.4s-.1-.1-.2-.2c-.1-.2-.1-.5-.1-.7-.1-.2-.2-.4-.2-.7 0-.1 0-.1.1-.2.1 0 .2 0 .2.1.3.3.5.3.8.3l3.2-.8c.3-.1.4-.1.4 0s-.1.3-.2.5L6.8 45zM8.1 38.5c.4 0 .5-.4.5-.6 0-.1 0-.1.2-.2.1 0 .1.2.1.4v.8c0 .3.1.5.1.8 0 .1 0 .2-.1.2s-.2-.1-.2-.2c-.1-.3-.4-.3-.6-.3l-3 .3c-.4 0-.5.3-.5.6 0 .1 0 .1-.1.2-.1 0-.1-.2-.1-.4v-.8c0-.3-.1-.5-.1-.8 0-.1 0-.2.1-.2s.2.2.2.2c.1.3.4.2.6.2l2.9-.2zM6.6 35.8c.1.1.2.1.2.1.1 0 .1-.1.1-.3v-.7-.3s-.2 0-.3.1l-1 .4c-.1 0-.1.1-.1.1s.1.1.2.1l.9.5zM4.3 35c-.2-.1-.2-.1-.2-.2l.1-.1L8 33.1c.3-.1.6-.2.7-.4.1-.2.1-.3.2-.3s.1.1.1.2c0 .3-.1.6-.1.9v1c0 .1-.1.1-.1.1-.1 0-.1-.1-.1-.2 0-.2-.2-.3-.4-.3s-.8.2-.9.3c-.1.1-.1.2-.1.5v1c0 .3.7.6 1 .6.1 0 .2-.2.3-.3.1-.2.1-.4.2-.4s.1.1.1.2c0 .2-.1.5-.1.7v.7c0 .1 0 .2-.1.2s-.1-.2-.2-.3c-.1-.1-.1-.2-.3-.2L4.3 35zM7.3 24.8c.1 0 .3 0 .4.1.1 0 .1.1.1.1 0 .1-.2.1-.3.1-.8.2-1.4.6-1.6 1.2-.3.8 0 1.6 1.4 2 1 .3 2.1 0 2.4-.9.2-.5.1-1.1-.2-1.6-.1-.1-.2-.2-.1-.3 0-.1.1-.1.1 0 .2.1 1 1.1.6 2.5-.3 1.1-1.5 2-2.9 1.6-1.8-.6-2.1-2-1.7-3.1.2-.7.7-1.2.8-1.3.1-.2-.2-.2-.1-.3 0-.1.1-.1.1-.1h1zM12 22.9c.4-.7-.1-1.6-1-2.1-.8-.4-2.4-.7-2.9.3-.4.7.1 1.6 1 2.1.8.4 2.4.7 2.9-.3m-4-2.2c.7-1.2 2-1.8 3.2-1.1 1.3.7 1.5 2.4.9 3.7-.7 1.2-2 1.7-3.2 1-1.2-.6-1.6-2.3-.9-3.6M11.1 17.8c-.2-.2-.5-.4-.8-.2-.2.1-.3.2-.4.1-.1-.1-.1-.1 0-.1.1-.2.3-.3.4-.4.1-.2.2-.3.4-.5.1-.1.1-.1.2-.1l3 .8c.3.1.4.1.4.1s0-.2-.1-.3l-1.2-3v-.3c.1-.2.3-.3.4-.4.1-.2.2-.3.4-.5h.1c.1.1 0 .2 0 .4-.1.2-.1.4.2.6l1.8 1.6c.4.4.7.6 1.2.3.1-.1.2-.1.3 0 .1.1 0 .2-.1.3l-.6.6c-.2.2-.3.4-.5.7-.1.1-.2.2-.3.1-.1-.1-.1-.1 0-.3.1-.2 0-.3-.3-.5L14 15.3c-.1 0-.1-.1-.2-.1 0 0 0 .1.1.3l1.2 2.8c0 .1.1.2 0 .3-.1.1-.1 0-.2 0l-3-.9c-.1 0-.2-.1-.2 0 0 0 0 .1.1.1l1.4 1.2c.3.3.7.4 1.1.2.1-.1.2-.1.3 0 .1.1 0 .2 0 .2-.2.2-.4.3-.5.5-.2.2-.3.4-.4.6 0 .1-.1.1-.2 0s-.1-.2 0-.3c.1-.4 0-.6-.3-.8l-2.1-1.6zM16.1 12.4c-.1-.2-.4-.4-.7-.4-.2 0-.3.1-.4 0-.1-.1 0-.1 0-.1.2-.1.3-.2.5-.3.2-.1.3-.3.5-.4.1-.1.2-.1.3 0l2.7 1.5c.3.1.4.2.4.2v-.3L19 9.4v-.2c.2-.1.3-.2.5-.3.2-.1.3-.3.5-.4 0 0 .1 0 .1.1.1.1 0 .2-.1.4-.2.2-.2.3 0 .7l1.4 2c.3.5.6.7 1.1.6h.3c.1.1 0 .2-.2.2-.2.1-.5.3-.7.4-.2.2-.4.3-.6.5-.1.1-.2.2-.3.1-.1-.1 0-.2 0-.3.1-.2 0-.3-.2-.6l-1.3-1.8c0-.1-.1-.1-.1-.1v.3l.5 3.1v.3h-.2L17 12.6c-.1-.1-.2-.1-.2-.1v.2l1 1.5c.2.3.5.6 1 .4.1 0 .2 0 .3.1.1.1 0 .2-.1.2-.2.1-.4.2-.6.4-.2.1-.4.3-.5.5-.1 0-.1.1-.2 0s0-.2 0-.3c.2-.4.1-.6-.1-.9l-1.5-2.2zM25.6 10.7c.7-.3.9-1.3.5-2.2-.4-.9-1.5-2-2.5-1.6-.7.3-.9 1.3-.5 2.2.4.9 1.4 2 2.5 1.6m-1.8-4.2C25 6 26.4 6.4 27 7.7c.6 1.4-.3 2.9-1.6 3.4s-2.6.1-3.1-1.2c-.6-1.3.2-2.8 1.5-3.4M28.7 6.4c-.2-.1-.3-.2-.4-.2v.2l.5 2.4c.1.3.2.6.6.6.2 0 .4 0 .4.1s-.1.2-.3.2c-.2 0-.5 0-.7.1-.2 0-.5.1-.7.2-.1 0-.1 0-.2-.1 0-.1.1-.2.1-.2.3-.3.4-.5.3-.8l-.5-2.5c-.1-.3-.2-.6-.5-.7-.2-.1-.3-.1-.4-.2 0-.1 0-.1.1-.1.2 0 .4-.1.6-.1.2 0 .4-.1.6-.2h.3l3.1 2.2c.1.1.2.1.3.1.1 0 0-.1 0-.2l-.3-1.5c-.1-.4-.2-.8-.6-.9-.2 0-.4 0-.4-.1s.1-.1.2-.2c.2 0 .5 0 .7-.1.2 0 .5-.1.7-.2.1 0 .1 0 .2.1 0 .1-.1.2-.1.2-.3.3-.4.5-.3.9l.7 3.2c.1.3 0 .4 0 .4-.1 0-.3-.1-.5-.2l-3.5-2.4zM33.5 4.7c-.1-.2-.2-.3-.3-.4-.1 0-.2-.1-.2-.2.1-.1.2-.1.3-.1.3 0 .5.1.8.1h.8c.1 0 .2 0 .2.1s-.1.1-.2.2c-.2.1-.2.2-.2.3 0 .1.1.2.1.4l.7 2.2c0 .1 0 .1.1.1l.1-.1.7-1.5-.4-1.1c-.1-.2-.2-.3-.3-.4-.1 0-.2-.1-.2-.2s.1-.1.2-.1c.3 0 .5.1.8.1h.8c.1 0 .2 0 .2.1s-.1.1-.2.2c-.2.1-.2.2-.2.3 0 .1.1.3.1.5l.7 2.1c0 .1 0 .1.1.1 0 0 .1-.1.1-.2l.7-1.8c.1-.2.1-.4.1-.5 0-.3-.4-.3-.5-.4-.1-.1-.2-.1-.2-.2s.1-.1.2-.1c.2 0 .5.1.7.1h.7c.1 0 .2 0 .2.1s-.1.1-.3.2c-.2.2-.2.3-.4.7L38 8.6c-.1.4-.2.4-.3.4-.1 0-.1 0-.2-.3l-.7-2.2c0-.1-.1-.2-.1-.2s-.1.1-.1.2l-1 2c-.2.3-.2.4-.3.4-.1 0-.1 0-.2-.3l-1.6-3.9zM41.1 5.7c.1-.3.1-.8-.1-.9-.2-.1-.3-.2-.3-.3 0-.1.1-.1.3-.1.5.2 1 .3 1.5.4.5.1 1 .1 1.5.2.2 0 .3.1.3.2s-.1.3-.1.4c0 .1 0 .3-.1.4 0 .1 0 .1-.1.1s-.1-.1-.1-.2c0-.4-.1-.6-.9-.8l-.4-.1c-.2 0-.2 0-.3.3L42 6.6c0 .1.1.2.3.2.4.1.7 0 .9-.2.1-.2.1-.2.2-.2s.1.1.1.2c0 .2-.1.4-.2.6 0 .2-.1.4-.1.6 0 .1 0 .2-.2.2-.1 0-.1-.2-.1-.4-.1-.3-.3-.4-.7-.5-.3-.1-.4 0-.4.2l-.2 1.1c-.1.5 0 .6.3.7.7.1 1.1 0 1.4-.2.3-.2.4-.4.5-.4.1 0 .1.1.1.1 0 .1-.1.4-.2.5-.1.2-.5.5-.8.4-.4-.1-.9-.2-1.3-.3-.4-.1-.9-.1-1.3-.2-.3 0-.4 0-.4-.1s.2-.1.3-.2c.2-.1.3-.2.4-.6l.5-2.4zM46.2 8.4l-.1.1c0 .1.1.1.2.2l.7.3c.2 0 .2.1.3 0v-.3l-.1-1c0-.1 0-.2-.1-.2 0 0-.1.1-.2.1l-.7.8zm1.6-1.9c.1-.2.2-.2.2-.2v.2l.2 4.1c0 .3 0 .6.2.8.1.1.2.2.2.3 0 .1-.1.1-.2 0-.3-.1-.6-.3-.9-.4l-.9-.3c-.1 0-.1-.1-.1-.1 0-.1.1-.1.2-.1.2 0 .3-.1.4-.2.1-.2.1-.8 0-.9-.1-.1-.2-.2-.5-.3l-1-.4c-.3-.1-.8.4-.9.7 0 .1.1.3.2.4.2.1.4.3.3.4 0 .1-.1.1-.2 0l-.6-.3c.1-.2-.2-.2-.4-.3-.1 0-.2-.1-.1-.2 0-.1.2-.1.3-.1.1 0 .2-.1.3-.2l3.3-2.9zM51.3 8.9c.2-.4.1-.6-.1-.8-.1 0-.1-.1 0-.2 0-.1.1-.1.2 0 .3.2.5.4.8.6.3.2.6.3.8.4 0 0 .1.1.1.2-.1.1-.2.1-.2 0-.3-.1-.5.1-.6.3l-1.5 2.5c-.3.4-.2.5.1.7.6.4 1.1.4 1.4.3.3-.1.5-.2.6-.1.1 0 .1.2 0 .3-.3.5-1 .6-1.4.3-.4-.2-1.2-.8-1.5-1-.2-.1-.5-.2-.7-.4-.1-.1-.2-.1-.2-.2.1-.1.2 0 .3 0 .3 0 .4-.2.5-.4l1.4-2.5zM55.7 11.6c.2-.2.1-.3-.2-.5-.5-.4-.8-.6-1.3-.1h-.1c-.1-.1-.1-.1 0-.1l.2-.2.5-.5c.1-.1.1-.1.3 0 .5.4 1 .9 1.6 1.4.5.4 1.1.8 1.6 1.3.1.1.1.1 0 .3l-.4.6-.1.1h-.1l-.1-.1c.3-.6.1-.9-.4-1.3-.3-.2-.4-.3-.6-.1l-2 2.4c-.3.4 0 .7.1.9 0 .1.1.1 0 .2s-.1 0-.2 0c-.3-.3-.6-.6-.9-.8-.3-.3-.7-.5-1-.7-.1-.1-.1-.1-.1-.2.1-.1.2 0 .3 0 .2.1.6.4.9-.1l2-2.5zM59.7 17.5c.2.2.3.2.4.1l.7-.6c.3-.3.3-.5.1-.8-.1-.1 0-.1 0-.2.1-.1.2.1.3.2.2.2.3.5.5.7l.6.6c.1.1.1.2 0 .2-.1.1-.2 0-.2 0-.2-.1-.5-.1-.7.1l-2.4 2c-.3.3-.3.5-.1.8.1.1 0 .1 0 .2-.1.1-.2-.1-.3-.2-.2-.2-.3-.5-.5-.7l-.6-.6c-.1-.1-.1-.2 0-.2.1-.1.2 0 .2 0 .2.2.5 0 .7-.1l1-.8c.2-.1.1-.2 0-.3l-1.1-1.3c-.1-.1-.2 0-.3 0l-1 .8c-.3.3-.3.5-.1.8.1.1.1.1 0 .2s-.2-.1-.3-.2c-.2-.2-.3-.5-.5-.7l-.6-.6c-.1-.1-.1-.2 0-.2.1-.1.2 0 .2 0 .2.2.5.1.7-.1l2.3-2c.3-.3.3-.5.1-.8-.1-.1-.1-.1 0-.2s.2.1.3.2c.2.2.3.5.5.7l.6.6c.1.1.1.2 0 .2-.1.1-.2 0-.2 0-.2-.2-.5 0-.7.1l-.6.6c-.1.1-.1.2 0 .3l1 1.2zM63.8 21.7c.4-.2.4-.4.3-.7 0-.1 0-.2.1-.2s.1 0 .3.3c.1.2.2.5.3.8.1.2.3.5.4.7.1.1 0 .2 0 .2-.1 0-.1 0-.2-.1-.2-.2-.4-.2-.6-.1l-1.9.9c-.7.3-1 1-.7 1.8.5 1.1 1.5 1 2.2.7l1.6-.7c.3-.1.4-.4.3-.7 0-.1 0-.2.1-.3.1 0 .1 0 .2.2s.1.4.2.6l.3.6c.1.1 0 .2 0 .2-.1 0-.2-.1-.2-.2-.2-.1-.3-.1-.8.1l-1.7.5c-1.4.6-2.4.2-3-1.2-.5-1.1-.3-2 .9-2.5l1.9-.9zM65.8 28.3c.1-.2.2-.3.2-.4h-.2l-2.4.5c-.3.1-.5.2-.6.6 0 .2 0 .4-.1.4s-.2-.1-.2-.3c-.1-.2 0-.5-.1-.7-.1-.2-.2-.5-.2-.7 0-.1 0-.1.1-.2.1 0 .2 0 .2.1.3.3.5.4.8.3l2.5-.5c.3-.1.6-.2.7-.5.1-.2.1-.3.2-.4.1 0 .1 0 .1.1 0 .2.1.4.1.6 0 .2.1.4.2.6v.3L65 31.3c-.1.1-.1.2-.1.3 0 .1.1 0 .2 0l1.5-.3c.4-.1.8-.2.8-.6 0-.2 0-.4.1-.4s.1.1.2.2c.1.2 0 .5.1.7.1.2.2.5.2.7 0 .1 0 .1-.1.2-.1 0-.2-.1-.2-.1-.3-.3-.5-.4-.8-.3l-3.2.7c-.3.1-.4.1-.4 0s.1-.3.2-.5l2.3-3.6zM64.2 34.8c-.4 0-.5.4-.5.6 0 .1 0 .1-.2.2-.1 0-.1-.2-.1-.4v-.8c0-.3-.1-.5-.1-.8 0-.1 0-.2.1-.2s.2.1.2.2c.1.3.4.3.6.3l3-.2c.4 0 .5-.3.5-.6 0-.1 0-.1.2-.2.1 0 .1.2.1.4v.8c0 .3.1.5.1.8 0 .1 0 .2-.1.2s-.2-.2-.2-.2c-.1-.3-.4-.3-.6-.2l-3 .1zM66.8 39.8c.2.1.3.2.4.2.1 0 .2 0 .3-.1.1-.1.1-.3.2-.5.1-.1.1-.1.2-.1s.1.1.1.2c0 .2-.1.5-.1.7v.7c0 .1 0 .2-.1.1-.1 0-.1-.2-.2-.3-.1-.2-.3-.3-.7-.5l-3.2-1.7c-.3-.2-.4-.3-.3-.3 0-.1.1-.1.3-.2l3.9-1.4c.3-.1.4-.3.5-.4.1-.1.1-.2.2-.2s.1.1.1.2c0 .3-.1.6-.1.9v.9s0 .2-.1.2-.1-.1-.1-.2c0-.2-.2-.2-.3-.2-.1 0-.3.1-.4.1l-2.4.6c-.2.1-.3.1-.3.1s0 .1.2.1l1.9 1.1zM66.4 42.2c.3.1.8.2.9-.1.1-.2.2-.3.3-.3.1 0 .1.1 0 .3-.2.5-.3 1-.4 1.5l-.3 1.5c0 .2-.1.3-.2.3s-.3-.1-.4-.1c-.1 0-.3 0-.4-.1-.1 0-.1-.1-.1-.1 0-.1.1-.1.2-.1.4.1.6-.1.8-.9l.1-.4c0-.2 0-.2-.3-.3l-1.1-.4c-.1 0-.2.1-.2.3-.1.4-.1.7.2.9.2.1.2.2.2.2 0 .1-.1.1-.2.1-.2 0-.4-.1-.6-.2-.2 0-.4-.1-.6-.1-.1 0-.2 0-.2-.2 0-.1.2-.1.4-.1.3-.1.4-.3.5-.7.1-.3 0-.4-.2-.4l-1.1-.3c-.5-.1-.6 0-.7.3-.2.7-.1 1.1.1 1.4.2.3.4.4.3.5 0 .1-.1.1-.2.1s-.4-.1-.5-.2c-.2-.1-.5-.5-.4-.8.1-.4.3-.9.4-1.3.1-.4.2-.9.3-1.3 0-.2.1-.3.2-.3s.1.2.1.3c.1.2.2.3.6.4l2.5.6zM64 47.6c-.1 0-.2-.1-.4.3-.2.6-.1.9.5 1.2.4.2 1 .1 1.2-.4.1-.3.1-.4-.2-.5l-1.1-.6zm1.4-.5c.4.2.6 0 .7-.2 0-.1.1-.1.2-.1s.1.1 0 .2-.2.3-.4.7c-.1.3-.3.8-.4 1.1-.4.8-.9 1.6-1.9 1.2-.4-.2-.6-.5-.6-.8v-.4c-.1 0-1.6.1-2.1.3-.1 0-.2.1-.2.1 0 .1 0 .1-.1.2 0 .1-.1.1-.2.1-.3-.1 0-.9.1-1.1.1-.2.3-.3.6-.4l1.6-.1c.2 0 .4-.1.5-.3.1-.2.1-.2 0-.3l-1.1-.5c-.5-.2-.7-.1-.8.2 0 .1-.1.1-.2.1s-.1-.1.1-.4c.1-.2.3-.5.4-.7.1-.2.2-.5.3-.8 0-.1.1-.2.2-.1.1 0 .1.2.1.2 0 .3.2.5.4.5l2.8 1.3zM61 50.3c.1 0 .2 0 .2.1 0 0 .1.1 0 .2s-.2 0-.4 0c-.6-.1-1.3.1-1.6.6-.3.4-.2.9.2 1.2.9.6 1.8-1.8 3.4-.8.6.4.8 1.2.4 1.9-.3.5-.7.6-.8.8 0 .1 0 .2-.1.3 0 .1-.1.1-.2 0-.3-.2-.9-.5-1-.5-.1 0-.1-.1-.1-.2.1-.1.2-.1.3 0 .5.1 1.2-.1 1.5-.5.2-.4.2-.8-.1-1-1-.6-1.8 1.8-3.4.8-.6-.4-1-1.2-.4-2.1.2-.4.6-.6.9-.9 0 0 .1-.1.2-.1l1 .2zM57.6 54.5c-.3-.3-.7-.1-.8 0-.1.1-.1.1-.2 0s0-.2.2-.4c.1-.2.3-.3.5-.6.2-.2.3-.5.5-.7.1-.1.1-.2.2-.1s0 .2 0 .2c-.1.3.1.5.2.6l2.4 1.9c.3.3.6.2.8 0 .1-.1.1-.1.2 0s0 .2-.2.4l-.6.6c-.2.2-.3.5-.5.7-.1.1-.1.2-.2.1s0-.2 0-.3c.1-.3-.1-.4-.3-.6l-2.2-1.8zM57.9 58.9c.2.2.3.1.6-.1.5-.4.7-.7.3-1.3v-.1c.1-.1.1-.1.1 0 0 0 .1.1.1.2l.4.6c.1.1.1.1 0 .3-.5.5-1 .9-1.6 1.4l-1.5 1.5c-.1.1-.2.1-.3 0l-.5-.5-.1-.1v-.1c.1-.1.1-.1.1 0 .6.4.8.2 1.3-.2.3-.3.3-.4.2-.6l-2-2.6c-.4-.4-.7-.1-.9 0-.1 0-.1.1-.3 0-.1-.1 0-.1 0-.2.3-.3.6-.5.9-.8l.9-.9c.1-.1.1-.1.2 0s0 .2 0 .2c-.1.2-.4.5-.1.9l2.2 2.4zM52 63c0 .2 0 .3.1.3.1.2.3.1.6 0 .1 0 .1 0 .2.1s0 .1-.1.2l-.6.3c-.2.1-.4.3-.6.4-.1 0-.1.1-.2 0s0-.1.1-.2c.1-.2.1-.3.1-.8v-1.7c0-.2 0-.3-.1-.4l-.5-.9c-.2-.3-.4-.4-.7-.3-.1.1-.3.1-.3 0-.1-.1.1-.2.2-.3.3-.2.5-.3.8-.5.2-.1.4-.3.7-.5.2-.1.3-.2.4-.1.1.1 0 .2-.2.3-.3.2-.2.5 0 .8l.5.7c0 .1.1.1.1.1l1.9 1c.4.2.6.2.8.2.1-.1.3-.1.3 0 .1.1 0 .2-.1.2-.3.2-.5.3-.8.5-.3.2-.5.4-.7.5-.1.1-.2.1-.3 0-.1-.1.1-.2.2-.3 0-.1.1-.2 0-.2-.1-.1-.2-.2-.3-.2l-1.1-.6c-.2-.1-.3-.1-.3-.1v.3L52 63zM26.3 64.5h-.4c-.1 0-.2 0-.3.1-.1 0-.1.1-.2.1l-.3.3H25v-.4c0-.1 0-.2-.1-.3 0-.1-.1-.1-.1-.2l-.3-.3h.4c.1 0 .2 0 .3-.1.1 0 .1-.1.2-.1l.3-.3v.4c0 .1 0 .2.1.3 0 .1.1.1.1.2.3 0 .3.1.4.3zM30.4 63.8c0-.1-.1-.2-.2-.2h-.3c-.1 0-.2 0-.1-.2 0-.1.2-.1.3-.1.4 0 .8 0 1.1-.2 0 0 .1-.1.2-.1s.1 0 .1.2l-.7 3.7c-.1.3.1.5.3.6.1.1.3.1.3.2s-.1.1-.3.1c-.3-.1-.6-.2-.8-.2-.3-.1-.6-.1-.9-.1-.2 0-.2-.1-.2-.1 0-.1.2-.1.3-.1.2 0 .4-.1.4-.3l.5-3.2zM33.2 64.2c0 .7.9 1 1.1 1 .4 0 .6-.3.6-.6 0-.6-.4-.9-.9-.9-.3-.2-.7 0-.8.5m.3 1.7c-.1 0-.1-.1-.2-.1s-.3.3-.4.7c0 .7.3 1.2 1 1.2.3 0 .9-.1 1-.7 0-.4-.1-.6-.4-.7l-1-.4zm2-1.5c0 .5-.3.7-.7.8-.1 0-.2 0-.2.1l.1.1c.5.3.8.8.8 1.4-.1 1.1-1 1.4-1.9 1.3-.8-.1-1.5-.5-1.4-1.4 0-.5.3-.8.7-.9h.1l-.1-.1c-.3-.3-.5-.6-.4-1.1.1-.8.8-1.3 1.6-1.2.7 0 1.5.3 1.4 1M37.5 63.8c-.4 0-.5.4-.7.4 0 0-.1 0-.1-.1 0-.2.6-.8 1.3-.8.5 0 1 .2 1 .8 0 .4-.3.8-.6 1v.1h.1c.6 0 1 .4 1 1 .1 1-.7 1.8-1.7 1.9-.6 0-1.2-.3-1.2-.5 0-.1 0-.1.1-.1.2 0 .3.3.9.3.7 0 1-.6.9-1.2 0-.4-.3-.8-.7-.8-.1 0-.2 0-.3.1-.1 0-.1 0-.1-.1s.2-.2.2-.2c.3-.2.6-.6.5-1 0-.5-.3-.8-.6-.8M41.4 65.6h-.2c-.1 0-.3.3-.2.8.1.7.6 1.1 1.3.9.3-.1.9-.4.8-.9-.1-.4-.2-.5-.6-.6l-1.1-.2zm-.7-1.6c.1.7 1.2.7 1.3.6.4-.1.5-.4.4-.8-.1-.5-.6-.8-1.1-.7-.3.1-.7.4-.6.9m2.3-.4c.1.5-.1.7-.5 1-.1 0-.1.1-.1.1s.1 0 .1.1c.6.2 1 .5 1.1 1.1.2 1.1-.6 1.6-1.5 1.7-.8.2-1.6-.1-1.8-1-.1-.5.1-.8.4-1.1l.1-.1s-.1 0-.1-.1c-.4-.2-.6-.5-.7-.9-.2-.8.5-1.4 1.2-1.6.8 0 1.7.1 1.8.8M48.2 63.6l-.3.3c-.1.1-.1.2-.1.2 0 .1 0 .1-.1.3v.4l-.3-.3c-.1-.1-.2-.1-.2-.1-.1 0-.2 0-.3-.1h-.4v-.1l.3-.3c.1-.1.1-.2.1-.2 0-.1 0-.1.1-.3V63l.3.3c.1.1.2.1.2.1.1 0 .1 0 .3.1.1 0 .3 0 .4.1z"/><path class="st0" d="M61.6 36.2c0 14.1-11.4 25.6-25.5 25.6S10.6 50.4 10.6 36.2c0-14.1 11.4-25.6 25.5-25.6s25.5 11.5 25.5 25.6"/><defs><path id="SVGID_1_" d="M10.7 36.2c0 14.1 11.4 25.6 25.5 25.6s25.5-11.4 25.5-25.6c0-14.1-11.4-25.6-25.5-25.6S10.7 22.1 10.7 36.2"/></defs><clipPath id="SVGID_2_"><use xlink:href="#SVGID_1_" overflow="visible"/></clipPath><path class="st3" d="M30.8 34.3l-.2 15.9s0 .1.1.2.5.2 1.7.2 1.6-.2 1.7-.2c.1-.1.1-.2.1-.2L34 34.3c-.2-.1-.6-.3-1.6-.3s-1.4.2-1.6.3M32.4 29.3c-1.9 0-2.4.6-2.4.6v.2s.4 0 .6.4c.2.5.3 2.5.3 2.5v.1c.3-.1.7-.3 1.6-.3.9 0 1.3.1 1.6.3v-.2s0-1.7.3-2.5c.2-.4.5-.5.5-.5v-.2c-.1.1-.6-.4-2.5-.4M38.2 34.3L38 50.1s0 .1.1.2.5.2 1.7.2 1.6-.1 1.7-.2c.1-.1.1-.2.1-.2l-.2-15.9c-.2-.1-.6-.3-1.6-.3-1 .1-1.4.2-1.6.4M42.2 29.9s-.5-.6-2.4-.6-2.4.6-2.4.6v.2s.3.1.5.5c.4.8.3 2.5.3 2.5v.2c.3-.1.7-.3 1.6-.3.9 0 1.3.1 1.6.3v-.1s.1-2 .3-2.5c.2-.4.6-.4.6-.4l-.1-.4zM53.1 50h-3.7c-.1 0-.1-.1-.1-.1l-.6-18.4s0-.1.1-.1h2.5c.1 0 .1.1.1.1l1.8 18.4c0-.1 0 .1-.1.1M52 30.8s0-.1-.1-.1h-3.6c-.1 0-.1.1-.1.1l.5 19.9s0 .1.1.1h5.1c.2 0 .2-.1.2-.1L52 30.8zM23 49.8s0 .1-.1.1h-3.7c-.2 0-.1-.2-.1-.2l1.8-18.4s0-.1.1-.1h2.5c.1 0 .1.1.1.1L23 49.8zm.6.8l.5-19.9s0-.1-.1-.1h-3.6c-.1 0-.1.1-.1.1l-2.1 19.9s0 .1.1.1h5.1c.2.1.2-.1.2-.1"/><path class="st3" d="M54.1 27.8s-.5.3-.7.6c-.2.3-.2.7-.2.7h-6.5s0-.4-.1-.7c-.2-.4-.6-.6-.6-.6v-.2s0-.1.1-.1h1.5c.4.6 1.2 1.1 2.4 1.1s2-.4 2.4-1.1H54c.1 0 .1.1.1.1v.2zm-10.2-1.3H28.4v-.9h15.5v.9zm-12.1-3.7s.8.3 1.6.3c1 0 1.3-.3 1.6-.1.2.1 0 .4 0 .7 0 .2.2.4.4.4s.3-.1.3-.2c-.1-.1-.2-.3-.2-.4 0-.3.3-.6.6-.6s.6.3.6.6c0 .2-.1.3-.2.4 0 .1.1.2.3.2.3 0 .4-.2.4-.4s-.2-.5 0-.7c.3-.2.6 0 1.6.1.8 0 1.6-.3 1.6-.3s-.3 1.1-1.9 1.5c-1.2.3-2.4.3-2.4.3s-1.1 0-2.4-.3c-1.6-.4-1.9-1.5-1.9-1.5m-5.6 5s-.4.3-.6.6c-.2.3-.1.7-.1.7H19s0-.4-.2-.7c-.2-.3-.7-.6-.7-.6v-.2s0-.1.1-.1h1.4c.4.6 1.2 1.1 2.4 1.1s2-.4 2.4-1.1h1.5c.1 0 .1.1.1.1v.2zm29-2.2H43.9l.1-.8h10.9v-.6c0-.6.4-1.1.4-1.1l1.4-1.8v-.5c0-.1 0-.1-.1-.1H43.5c-.1 0-.1 0-.1.1v1H28.9v-1s0-.1-.1-.1H15.7c-.1 0-.1 0-.1.1v.5l1.4 1.8s.4.5.4 1.1v.6h10.9l.1.8H17.1l-3.6 27h3.1l2.6-22.9h6.4l-.3 22.9h2.5l.7-1.1V28.2H44v23.3l.7 1.1h2.5l-.3-22.9h6.4l2.6 22.9H59l-3.8-27z"/><path class="st1" d="M29.9 18c0 1.1.6.7.6 1 0 0 0 .1-.1.1h-1.2L29 19c0-.2.5-.1.5-.7l.1-2.5c0-1-.6-.7-.6-1 0 0 0-.1.1-.1h1c.1 0 .1 0 .2.2l1.4 3c0 .1 0 .1.1.1l.1-.1 1.4-3s0-.1.2-.1h.8c.2 0 .2 0 .2.1 0 .2-.6 0-.6.7l.1 2.8c0 .8.6.5.6.8 0 .1-.1.1-.3.1h-1.2c-.1 0-.3 0-.3-.1 0-.2.5 0 .4-.7l-.2-2.1c0-.2 0-.3-.1-.3 0 0-.1.1-.2.3l-1.2 2.5c0 .1-.1.2-.2.2s-.1-.1-.2-.2L30 16.2s0-.1-.1-.1V18z"/><path class="st1" d="M38.4 16c0 .1 0 .2-.1.2s-.1-.1-.2-.2c-.3-.6-.9-1.1-1.6-1.1-.9 0-1.4.9-1.4 1.7 0 .9.5 2.1 1.7 2.1 1 0 1.4-.8 1.5-.8 0 0 .1 0 .1.1 0 .2-.7 1.2-2 1.2-1.8 0-2.1-1.6-2.1-2.1 0-1 .6-2.4 2.2-2.4.8 0 1.2.4 1.4.4.1 0 .1-.2.2-.2h.1l.2 1.1zM41.2 18.9c-.1.2-.1.2-.2.2s-.1-.1-.2-.3l-1.5-3.6c-.1-.2-.2-.3-.4-.4 0 0-.1 0-.1-.1s.2-.1.3-.1H40.4c.2 0 .2 0 .2.1 0 .2-.4.1-.4.3 0 .2.1.5.2.9l.8 2 .1.1.1-.1.9-1.9c.2-.4.2-.6.2-.7 0-.6-.6-.4-.6-.6 0-.1.2-.1.3-.1h1c.1 0 .2 0 .2.1s-.3.1-.4.5l-1.8 3.7zM32.5 55.7c0 .2.2.2.4.2 1 0 1-.4 1-.7 0-.6-.4-1.1-1-1.1-.2 0-.4 0-.4.4v1.2zm-.8-1.1c0-.7-.7-.5-.7-.7 0-.1.1-.1.1-.1h2.1c1.4 0 1.5.9 1.5 1.2 0 .4-.2.6-.4.8-.2.1-.4.2-.4.3 0 0 .5 1 1 1.8.1.1.2.1.2.1h.2c.1 0 .1 0 .1.1 0 .2-.4.3-.7.3-.5 0-.7-.4-.9-.8l-.5-1c-.1-.3-.3-.3-.6-.3s-.3 0-.3.3v1.1c0 .7.6.4.6.7 0 .1-.1.1-.2.1h-1.6c-.1 0-.2 0-.2-.1 0-.2.5 0 .5-.8v-3zM36.9 57.5c0 .8.6.6.6.8 0 .1-.1.1-.2.1H35.6s-.1 0-.1-.1c0-.2.5 0 .5-.9v-2.8c0-.7-.7-.4-.7-.7 0 0 0-.1.2-.1h1.9c.8 0 1.6.3 1.6 1.3 0 .8-.6 1.3-1.4 1.3-.6 0-.7-.2-.7-.2s0-.1.1-.1h.3c.8 0 .8-.7.8-.9 0-.2-.1-1.1-1-1.1-.3 0-.4.1-.4.4v3zM41.1 57.5c0 .8.7.5.7.7 0 .1-.1.1-.2.1h-1.7c-.1 0-.1 0-.1-.1 0-.2.5-.1.5-.7v-3.1c0-.6-.7-.4-.7-.6 0-.1.2-.1.2-.1h1.5c.2 0 .2 0 .2.1 0 .2-.5 0-.5.6v3.1zM44.3 16.5l6 .3-6 .3s-1 0-1-.3 1-.3 1-.3M27.6 17.2l-6-.3 6-.3s1 0 1 .3-1 .3-1 .3M43.2 55.7l6 .3-6 .3s-1 0-1-.3 1-.3 1-.3M29.3 56.4l-6-.3 6-.3s1 0 1 .3-1 .3-1 .3"/></svg>